# xmcd CD database file
#
# Track frame offsets:
#	150
#	17215
#	33237
#	58247
#	80212
#	99755
#	119577
#	142540
#	165317
#	177575
#	195502
#	219292
#
# Disc length: 3227 seconds
#
# Revision: 20
# Processed by: cddbd v1.5.2PL0 Copyright (c) Steve Scherf et al.
# Submitted via: CDex 1.70beta3
#
DISCID=9a0c990c
DTITLE=Bonnie Raitt - Luck Of The Draw
DYEAR=1991
DGENRE=Country
TTITLE0=Something To Talk About
TTITLE1=Good Man, Good Woman (Duet with Delbert McClinton)
TTITLE2=I Can't Make You Love Me
TTITLE3=Tangled And Dark
TTITLE4=Come To Me
TTITLE5=No Business
TTITLE6=One Part Be My Lover
TTITLE7=Not The Only One
TTITLE8=Papa Come Quick (Jody And Chico)
TTITLE9=Slow Ride
TTITLE10=Luck Of The Draw
TTITLE11=All At Once
EXTD=YEAR=1991\nLABEL=Capitol\nID=C2-96111\nUPC=0 7777-96111-2 6\nSPARS=AAD YEAR: 1991
EXTT0=
EXTT1=
EXTT2=
EXTT3=
EXTT4=
EXTT5=
EXTT6=
EXTT7=
EXTT8=
EXTT9=
EXTT10=
EXTT11=
PLAYORDER=
